<svg xmlns="http://www.w3.org/2000/svg" viewBox="0 0 64 64" fill="none">
  <rect width="64" height="64" rx="14" fill="#0e1726"/>
  <rect x="10" y="10" width="44" height="44" rx="10" fill="url(#g)"/>
  <path d="M20 38V26h6.2c3.1 0 5.1 1.7 5.1 4.2 0 2.6-2 4.3-5.1 4.3H23.6V38H20zm3.6-6.2h2.3c1.4 0 2.2-.7 2.2-1.8s-.8-1.8-2.2-1.8h-2.3v3.6zM34.2 38l4.5-12h3.8l4.5 12h-3.5l-.8-2.3h-4.3L37.6 38h-3.4zm5.2-5h2.8l-1.4-4.1L39.4 33z" fill="#fff"/>
  <defs>
    <linearGradient id="g" x1="10" y1="10" x2="54" y2="54" gradientUnits="userSpaceOnUse">
      <stop stop-color="#1a6f7c"/>
      <stop offset="1" stop-color="#2f5f8a"/>
    </linearGradient>
  </defs>
</svg>
